# xmcd
# Track frame offsets:
# 150
# 12249
# 21589
# 31814
# 41475
# 51761
# 63140
# 75959
# 87720
# 99429
# 111381
#
# Disc length: 1601 seconds
# Revision: 0
# Processed by: cddbd v1.4PL0 Copyright (c) Steve Scherf et al.
# Submitted via: VisiTrax 2.9.5.180 - For more info visit www.synapsa.com
#
DISCID=82063f0b
DTITLE=Dave Dudley - Original traveling man
DYEAR=1900
DGENRE=
TTITLE0=Original traveling man
TTITLE1=Bullshipers
TTITLE2=My body's at home (but my heart is on the road)
TTITLE3=Pullin' double
TTITLE4=1953 Dear John honky tonk blues
TTITLE5=If it feels god do it
TTITLE6=You've got a cry girl
TTITLE7=Rocky top
TTITLE8=Sometimes in the future
TTITLE9=Singing away
TTITLE10=A thing called love
EXTD=
EXTT0=
EXTT1=
EXTT2=
EXTT3=
EXTT4=
EXTT5=
EXTT6=
EXTT7=
EXTT8=
EXTT9=
EXTT10=
PLAYORDER=
